<svg width="25" height="20" viewBox="0 0 25 20" fill="none" xmlns="http://www.w3.org/2000/svg">
<path d="M4.12502 13.7477C3.69439 13.746 3.28274 13.5701 2.98372 13.2604C2.6825 12.9569 2.51367 12.5467 2.51367 12.1192C2.51367 11.6916 2.6825 11.2814 2.98372 10.9779L8.08165 5.88001C8.69764 5.26345 9.53402 4.91721 10.4057 4.91798H12.7881C12.9577 4.91705 13.1109 5.01931 13.1754 5.17624C13.2377 5.33094 13.2016 5.50796 13.0837 5.62602L9.35608 9.3745C9.32633 9.40407 9.29268 9.42917 9.25605 9.44943C9.04129 9.55728 8.84457 9.69785 8.67295 9.86593L5.26605 13.2687C4.96557 13.5755 4.55429 13.7481 4.12494 13.7477L4.12502 13.7477ZM10.4058 5.75092C9.75521 5.75204 9.13123 6.00938 8.66899 6.46735L3.57105 11.5653C3.39032 11.7657 3.32524 12.045 3.39925 12.3046C3.47325 12.5641 3.67555 12.7674 3.93493 12.8423C4.19431 12.9172 4.47376 12.8534 4.67478 12.6733L8.08168 9.27474L8.08187 9.27456C8.29514 9.05385 8.54094 8.86698 8.81072 8.72064L11.7846 5.75103L10.4058 5.75092Z" fill="#30333F"/>
<path d="M17.9724 17.0213H15.7274C14.7228 17.0226 13.7392 16.7333 12.8952 16.1883C12.6321 16.018 12.3257 15.9269 12.0122 15.926H7.51401C6.9551 15.9228 6.41979 15.6991 6.02447 15.3038C5.62917 14.9085 5.40568 14.3734 5.40234 13.8143C5.40346 13.2542 5.62621 12.7174 6.0219 12.321C6.41758 11.9244 6.954 11.7008 7.51406 11.6985H11.7207C11.9578 11.7006 12.1857 11.6076 12.3538 11.4403C12.5228 11.2729 12.6188 11.0451 12.6204 10.8073C12.6191 10.3103 12.3962 9.8399 12.0123 9.52436C11.9241 9.44683 11.8704 9.3375 11.8624 9.22036C11.8572 9.10396 11.9009 8.99073 11.9831 8.90798L15.8481 5.03865L15.8483 5.03883C15.9268 4.96074 16.0333 4.91742 16.144 4.91797H16.5021C17.3758 4.91779 18.2136 5.26549 18.8304 5.8843L21.3751 8.42903C21.4547 8.50693 21.4997 8.61348 21.5 8.72485V15.5097C21.4999 15.6514 21.4277 15.7832 21.3085 15.8597L20.8046 16.1888V16.1886C19.9605 16.7335 18.977 17.0229 17.9724 17.0216L17.9724 17.0213ZM7.51425 12.5315C7.17473 12.5326 6.84952 12.6684 6.60985 12.9088C6.37018 13.1492 6.23556 13.4748 6.23556 13.8143C6.24003 14.1521 6.37613 14.4749 6.61488 14.7137C6.8538 14.9526 7.1766 15.0887 7.51427 15.093H12.0041C12.4793 15.1 12.9423 15.2447 13.3369 15.5095C14.0518 15.9617 14.882 16.1974 15.7277 16.1883H17.9808C18.8246 16.1895 19.6505 15.9464 20.3592 15.4887L20.6756 15.2845V8.89947L18.2267 6.47132C17.7661 6.01038 17.1413 5.75118 16.4898 5.7508H16.3024L12.858 9.20364C13.2345 9.65305 13.4409 10.2207 13.4411 10.8072C13.4405 11.2661 13.2559 11.7056 12.9288 12.0275C12.6088 12.3564 12.1674 12.5386 11.7085 12.5314L7.51425 12.5315Z" fill="#30333F"/>
<path d="M4.10789 17.7879C3.99651 17.7875 3.89015 17.7426 3.81225 17.663L2.14626 15.997C2.06816 15.9183 2.02484 15.812 2.0254 15.7013C2.02577 15.592 2.06928 15.4873 2.14626 15.4098L16.1449 1.39881C16.4466 1.10075 16.8537 0.933594 17.2778 0.933594C17.7019 0.933594 18.1089 1.10075 18.4107 1.39881C18.7095 1.69928 18.8772 2.10576 18.8772 2.52968C18.8772 2.95343 18.7095 3.35987 18.4107 3.66037L12.5797 9.49134C12.5675 9.50733 12.5519 9.52016 12.5338 9.52889L9.65998 12.4068C9.58133 12.4847 9.47498 12.5282 9.36434 12.5277H7.515C7.17548 12.5288 6.85027 12.6643 6.6106 12.9048C6.37093 13.1454 6.23631 13.471 6.23631 13.8104C6.23111 14.1723 6.38301 14.5189 6.65281 14.76C6.74113 14.8353 6.79393 14.9441 6.79858 15.0599C6.80286 15.1771 6.75749 15.2903 6.67363 15.3723L4.4037 17.663C4.32579 17.7426 4.21943 17.7876 4.10806 17.788L4.10789 17.7879ZM3.01661 15.7054L4.10789 16.7924L5.81962 15.0807C5.55094 14.7194 5.40498 14.2815 5.40312 13.8312C5.40312 13.6311 5.4312 13.432 5.48642 13.2397L3.01661 15.7054ZM17.2694 1.76537C17.0651 1.76537 16.8689 1.84625 16.7239 1.99035L6.92784 11.7864C7.11842 11.7297 7.31607 11.7001 7.51503 11.6988H9.18102L11.9716 8.90827L12.0173 8.87071L17.8107 3.07306C17.9546 2.92989 18.0342 2.73447 18.0314 2.53162C18.0343 2.32745 17.9548 2.13073 17.8107 1.98588C17.6656 1.84476 17.4715 1.76573 17.2692 1.76518L17.2694 1.76537Z" fill="#30333F"/>
<path d="M1.15059 19.0663C1.01095 19.0661 0.880612 18.996 0.803634 18.8796C0.72647 18.7632 0.712899 18.616 0.767376 18.4873L2.04605 15.5302C2.1035 15.4063 2.21823 15.3184 2.35284 15.2951C2.48746 15.2719 2.62506 15.3162 2.72081 15.4136L4.3868 17.0796C4.48293 17.1772 4.52495 17.3157 4.4993 17.4503C4.47382 17.5853 4.38346 17.6989 4.25758 17.7543L1.3172 19.033C1.26458 19.0553 1.20787 19.0667 1.1506 19.0663L1.15059 19.0663ZM2.56669 16.4216L1.95032 17.8501L3.37888 17.2295L2.56669 16.4216Z" fill="#30333F"/>
<path d="M24.4749 17.6212H21.0845C20.8545 17.6212 20.668 17.4347 20.668 17.2047V7.02978C20.668 6.79978 20.8545 6.61328 21.0845 6.61328H24.4749C24.5853 6.61328 24.6913 6.65716 24.7694 6.73526C24.8475 6.81335 24.8914 6.91933 24.8914 7.02978V17.2047C24.8914 17.3152 24.8475 17.4211 24.7694 17.4992C24.6913 17.5773 24.5853 17.6212 24.4749 17.6212ZM21.501 16.7882H24.0584V7.44628H21.501V16.7882Z" fill="#30333F"/>
<path d="M16.9779 4.91373C16.8672 4.91429 16.7607 4.87078 16.6822 4.79287L15.0162 3.12688C14.8746 2.96158 14.8842 2.71522 15.038 2.56144C15.1918 2.40767 15.4381 2.398 15.6034 2.53968L17.2694 4.20568C17.431 4.368 17.431 4.63036 17.2694 4.79287C17.1919 4.86985 17.0872 4.91317 16.9779 4.91373L16.9779 4.91373Z" fill="#30333F"/>
<rect x="21.5332" y="7.86719" width="2.13333" height="8.53333" fill="#FF9975"/>
</svg>
