<svg width="80" height="80" viewBox="0 0 80 80" fill="none" xmlns="http://www.w3.org/2000/svg">
<path d="M38.1477 34.9746C36.3106 34.9746 34.8213 36.4639 34.8213 38.301V57.3128C34.8213 59.1499 36.3106 60.6392 38.1477 60.6392H58.6009C60.438 60.6392 61.9273 59.1499 61.9273 57.3128V38.301C61.9273 36.4639 60.438 34.9746 58.6009 34.9746H53.5949V40.7156C53.5949 41.0838 53.2964 41.3822 52.9282 41.3822H48.3743H43.8204C43.4522 41.3822 43.1537 41.0838 43.1537 40.7156V34.9746H38.1477Z" fill="#FF9975"/>
<circle cx="26.6153" cy="60.6412" r="6.02546" stroke="white" stroke-width="2" stroke-linecap="round" stroke-linejoin="round"/>
<circle cx="26.6148" cy="60.6407" r="1.25442" fill="#30333F" stroke="white" stroke-width="2" stroke-linecap="round" stroke-linejoin="round"/>
<path d="M71.3017 60.6418H32.7038M15.8896 13.3335H23.9494C25.4221 13.3335 26.616 14.5274 26.616 16.0002V54.2401" stroke="white" stroke-width="2" stroke-linecap="round" stroke-linejoin="round"/>
<path d="M13.0381 29.1021H21.7162" stroke="white" stroke-width="2" stroke-linecap="round" stroke-linejoin="round"/>
<path d="M13.0381 42.4824H21.7162" stroke="white" stroke-width="2" stroke-linecap="round" stroke-linejoin="round"/>
<path d="M8.69922 35.793H17.3774" stroke="white" stroke-width="2" stroke-linecap="round" stroke-linejoin="round"/>
<path d="M42.735 21.3525C41.7218 21.3525 40.9004 22.101 40.9004 23.0243V33.304C40.9004 34.2273 41.7218 34.9758 42.735 34.9758H54.016C55.0293 34.9758 55.8507 34.2273 55.8507 33.304V23.0243C55.8507 22.101 55.0293 21.3525 54.016 21.3525H42.735Z" stroke="white" stroke-width="2" stroke-linejoin="round"/>
<path d="M48.4775 21.4365V25.231" stroke="white" stroke-width="2" stroke-linecap="round" stroke-linejoin="round"/>
</svg>
