<svg width="80" height="80" viewBox="0 0 80 80" fill="none" xmlns="http://www.w3.org/2000/svg">
<path d="M31.9717 40.5015L36.9895 45.5193L48.0281 34.4815" stroke="#FF9975" stroke-width="4.66667" stroke-linecap="round" stroke-linejoin="round"/>
<path d="M57.2898 45.9291C59.8485 36.3802 54.1817 26.565 44.6327 24.0064C35.0837 21.4477 25.2686 27.1145 22.7099 36.6635C20.1513 46.2125 25.8181 56.0276 35.3671 58.5863C40.4095 59.9374 45.5261 58.9949 49.6092 56.3983M52.9324 53.6768C53.832 52.7388 54.6349 51.6967 55.3201 50.5626" stroke="white" stroke-width="2" stroke-linecap="round"/>
<path d="M32.8878 16.8404C36.4766 12.1645 43.5236 12.1645 47.1124 16.8404C48.845 19.0977 51.5462 20.3985 54.3913 20.3457C60.2845 20.2362 64.6783 25.7458 63.2602 31.4669C62.5755 34.2289 63.2427 37.1519 65.0579 39.3433C68.8179 43.8825 67.2498 50.7529 61.8926 53.2112C59.3064 54.398 57.437 56.7421 56.8555 59.5276C55.6509 65.2975 49.3017 68.3551 44.0396 65.6994C41.4992 64.4173 38.501 64.4173 35.9606 65.6994C30.6985 68.3551 24.3494 65.2975 23.1447 59.5276C22.5632 56.7421 20.6939 54.398 18.1076 53.2112C12.7504 50.7529 11.1823 43.8825 14.9423 39.3433C16.7575 37.1519 17.4247 34.2289 16.7401 31.4669C15.3219 25.7458 19.7157 20.2362 25.609 20.3457C28.454 20.3985 31.1553 19.0977 32.8878 16.8404Z" stroke="white" stroke-width="2"/>
</svg>
